# xmcd
#
# Track frame offsets:
#	150
#	17203
#	36480
#	53822
#	70112
#	91107
#	108352
#	126283
#	143907
#	162647
#	182643
#	197557
#
# Disc length: 2888 seconds
#
# Revision: 0
# Processed by: cddbd v1.4PL0 Copyright (c) Steve Scherf et al.
# Submitted via: EasyCDDAExtractor 5.0.5.1
#
DISCID=a80b460c
DTITLE=Данко - Дон Жуан De luxe
DYEAR=2001
DGENRE=Pop
TTITLE0=Три спасибо (Три мерси)
TTITLE1=Ты меня разлюбила
TTITLE2=В последний раз
TTITLE3=День дождя
TTITLE4=Старая любовь на Новый год
TTITLE5=Никогда...
TTITLE6=Плачь, детка, плачь
TTITLE7=Ты и я 
TTITLE8=Наше рандеву
TTITLE9=Дом из стекла (Интервью)
TTITLE10=В последний раз (Acoustic live version)
TTITLE11=неуказана
EXTD=
EXTT0=
EXTT1=
EXTT2=
EXTT3=
EXTT4=
EXTT5=
EXTT6=
EXTT7=
EXTT8=
EXTT9=
EXTT10=
EXTT11=
PLAYORDER=
